<svg xmlns="http://www.w3.org/2000/svg" width="201" height="31" viewBox="0 0 201 31" fill="none"><g clip-path="url(#clip0_1707_294)"><path d="M42.6232 10.2294C42.6232 7.6066 43.1518 5.5519 44.2149 4.07131C45.2779 2.58468 46.9166 1.84741 49.1308 1.84741C49.9119 1.84741 50.6696 1.96223 51.392 2.19187C52.1202 2.42151 52.7604 2.72368 53.3184 3.09231L52.0791 6.50673C51.2275 5.9991 50.4229 5.74529 49.6652 5.74529C48.6785 5.74529 47.9796 6.07163 47.5685 6.73034C47.1574 7.38301 46.9459 8.42848 46.9459 9.85468V10.7853H51.4742V14.1333H46.9459V28.2442H42.6174V14.1272H39.8981V10.7793H42.6174V10.2294H42.6232Z" fill="#1D374F"></path><path d="M58.2813 7.58844C57.788 8.10816 57.183 8.36197 56.4724 8.36197C55.7793 8.36197 55.1861 8.10212 54.6928 7.58844C54.1994 7.06872 53.9528 6.45232 53.9528 5.73922C53.9528 5.02612 54.1994 4.41575 54.6928 3.90812C55.1861 3.40049 55.7793 3.14667 56.4724 3.14667C57.1654 3.14667 57.7645 3.40049 58.2696 3.90812C58.7747 4.41575 59.0214 5.02612 59.0214 5.73922C59.0214 6.45232 58.7747 7.06872 58.2813 7.58844ZM54.3286 28.2381V10.7793H58.6572V28.2381H54.3286Z" fill="#1D374F"></path><path d="M62.3397 28.2382V18.7503C62.3397 17.1186 62.7097 15.6683 63.4439 14.3992C64.178 13.1301 65.1882 12.1511 66.4627 11.4501C67.7372 10.7491 69.135 10.3986 70.6562 10.3986C72.1774 10.3986 73.5693 10.7491 74.8321 11.4501C76.0948 12.1511 77.0991 13.1361 77.8509 14.3992C78.5968 15.6622 78.9727 17.1126 78.9727 18.7503V28.2382H74.6148V18.9558C74.6148 17.5779 74.2447 16.4901 73.5106 15.6924C72.7706 14.9008 71.825 14.5019 70.6621 14.5019C69.4992 14.5019 68.5419 14.9008 67.796 15.6924C67.0442 16.4841 66.6742 17.5719 66.6742 18.9558V28.2382H62.3397Z" fill="#1D374F"></path><path d="M98.695 21.1676H85.8855C86.1733 22.2252 86.7371 23.0591 87.5653 23.6695C88.3934 24.2798 89.3213 24.582 90.3492 24.582C91.1773 24.582 91.9937 24.4128 92.7983 24.0804C93.6029 23.748 94.2725 23.2465 94.8128 22.5817L97.9315 25.2709C96.1636 27.5009 93.5853 28.6189 90.1847 28.6189C88.5754 28.6189 87.0954 28.2079 85.7387 27.3921C84.3878 26.5763 83.313 25.4704 82.5201 24.0804C81.7273 22.6905 81.3279 21.1615 81.3279 19.5057C81.3279 17.8499 81.7273 16.327 82.5201 14.931C83.313 13.541 84.3878 12.4351 85.7387 11.6193C87.0895 10.8035 88.5696 10.3925 90.1847 10.3925C91.7998 10.3925 93.2564 10.8035 94.5779 11.6193C95.8994 12.4351 96.9389 13.541 97.6966 14.931C98.4542 16.3209 98.836 17.8499 98.836 19.5057C98.8301 20.1523 98.7831 20.7083 98.695 21.1676ZM92.8746 15.4205C92.1229 14.8101 91.2243 14.508 90.173 14.508C89.0982 14.508 88.1702 14.8162 87.3891 15.4386C86.6079 16.0611 86.0793 16.9252 85.815 18.0251H94.3664C94.1256 16.9011 93.6264 16.0308 92.8746 15.4205Z" fill="#1D374F"></path><path d="M102.419 21.9955C102.865 22.5273 103.464 23.0228 104.216 23.4942C104.968 23.9656 105.708 24.2919 106.448 24.4793C107.182 24.6424 107.81 24.721 108.327 24.721C109.067 24.721 109.654 24.5941 110.107 24.3403C110.553 24.0865 110.776 23.7057 110.776 23.2041C110.776 22.7872 110.623 22.491 110.324 22.3037C110.024 22.1224 109.695 21.9834 109.349 21.8867C109.002 21.7961 108.762 21.7236 108.627 21.6813C106.859 21.1494 105.361 20.66 104.134 20.1946C103.17 19.826 102.407 19.2398 101.837 18.436C101.267 17.6323 100.98 16.7439 100.98 15.777C100.98 15.6139 101.003 15.3721 101.05 15.0518C101.297 13.4202 102.125 12.2417 103.529 11.5166C104.938 10.7914 106.536 10.4288 108.327 10.4288C109.513 10.4288 110.723 10.598 111.968 10.9304C113.208 11.2627 114.241 11.7099 115.069 12.2599L113.19 16.1275C112.45 15.7106 111.822 15.3903 111.293 15.1606C110.764 14.931 110.183 14.7557 109.531 14.6409C108.838 14.5019 108.233 14.4354 107.722 14.4354C106.982 14.4354 106.43 14.5623 106.06 14.8161C105.69 15.07 105.508 15.3782 105.508 15.7468C105.508 16.2061 105.713 16.5445 106.13 16.7621C106.542 16.9796 107.399 17.2516 108.697 17.5719C108.627 17.5477 108.967 17.6444 109.701 17.8499C111.604 18.3575 112.984 18.9437 113.842 19.6084C114.699 20.2732 115.199 21.2401 115.334 22.5092C115.357 22.6482 115.369 22.8416 115.369 23.0954C115.369 23.9958 115.14 24.8056 114.682 25.5308C114.224 26.256 113.589 26.8603 112.785 27.3438C112.203 27.7124 111.493 28.0085 110.653 28.2442C109.813 28.4738 109.014 28.5887 108.257 28.5887C106.448 28.5887 104.821 28.2925 103.376 27.7063C101.931 27.1202 100.756 26.2983 99.8402 25.2407C99.9694 25.1017 100.833 24.02 102.419 21.9955Z" fill="#1D374F"></path><path d="M127.738 10.7793V14.1272H123.409V28.2381H119.081V14.1272H116.362V10.7793H119.081V4.08337H123.409V10.7793H127.738Z" fill="#1D374F"></path><path d="M141.687 26.0324C140.142 27.7608 138.134 28.6189 135.649 28.6189C134.087 28.6189 132.648 28.22 131.338 27.4284C130.029 26.6367 128.989 25.5429 128.22 24.1469C127.45 22.757 127.063 21.2099 127.063 19.5057C127.063 17.8015 127.45 16.2545 128.22 14.8645C128.989 13.4746 130.029 12.3808 131.338 11.583C132.648 10.7914 134.081 10.3925 135.649 10.3925C138.134 10.3925 140.142 11.2567 141.687 12.979V4.07736H146.045V28.2321H141.687V26.0324ZM141.017 16.7319C140.571 15.916 139.954 15.2754 139.173 14.8162C138.392 14.3569 137.517 14.1272 136.56 14.1272C135.573 14.1272 134.692 14.3569 133.911 14.8162C133.13 15.2754 132.513 15.916 132.067 16.7319C131.62 17.5477 131.397 18.4723 131.397 19.5118C131.397 20.5451 131.62 21.4758 132.067 22.2916C132.513 23.1075 133.13 23.7481 133.911 24.2073C134.692 24.6666 135.573 24.8963 136.56 24.8963C137.523 24.8963 138.392 24.6666 139.173 24.2073C139.954 23.7481 140.571 23.1075 141.017 22.2916C141.464 21.4758 141.687 20.5512 141.687 19.5118C141.687 18.4723 141.464 17.5477 141.017 16.7319Z" fill="#1D374F"></path><path d="M166.102 21.1676H153.292C153.58 22.2252 154.144 23.0591 154.972 23.6695C155.8 24.2798 156.728 24.582 157.756 24.582C158.584 24.582 159.401 24.4128 160.205 24.0804C161.01 23.748 161.679 23.2465 162.22 22.5817L165.338 25.2709C163.571 27.5009 160.992 28.6189 157.592 28.6189C155.982 28.6189 154.502 28.2079 153.146 27.3921C151.795 26.5763 150.72 25.4704 149.927 24.0804C149.134 22.6905 148.735 21.1615 148.735 19.5057C148.735 17.8499 149.128 16.327 149.927 14.931C150.72 13.541 151.795 12.4351 153.146 11.6193C154.497 10.8035 155.982 10.3925 157.592 10.3925C159.201 10.3925 160.663 10.8035 161.985 11.6193C163.306 12.4351 164.346 13.541 165.104 14.931C165.861 16.3209 166.243 17.8499 166.243 19.5057C166.237 20.1523 166.196 20.7083 166.102 21.1676ZM160.288 15.4205C159.536 14.8101 158.637 14.508 157.586 14.508C156.511 14.508 155.583 14.8162 154.802 15.4386C154.021 16.0611 153.492 16.9252 153.228 18.0251H161.779C161.533 16.9011 161.033 16.0308 160.288 15.4205Z" fill="#1D374F"></path><path d="M166.237 10.7793H170.9L175.863 24.0321L180.861 10.7793H185.489L178.312 28.2382H173.449L166.237 10.7793Z" fill="#1D374F"></path><path d="M187.398 21.9955C187.845 22.5273 188.444 23.0228 189.195 23.4942C189.947 23.9656 190.687 24.2919 191.427 24.4793C192.161 24.6424 192.79 24.721 193.307 24.721C194.047 24.721 194.634 24.5941 195.086 24.3403C195.533 24.0865 195.756 23.7057 195.756 23.2041C195.756 22.7872 195.603 22.491 195.304 22.3037C195.004 22.1224 194.675 21.9834 194.329 21.8867C193.982 21.7961 193.741 21.7236 193.606 21.6813C191.838 21.1494 190.341 20.66 189.113 20.1946C188.15 19.826 187.386 19.2398 186.817 18.436C186.247 17.6323 185.959 16.7439 185.959 15.777C185.959 15.6139 185.983 15.3721 186.03 15.0518C186.276 13.4202 187.104 12.2417 188.514 11.5166C189.924 10.7914 191.521 10.4288 193.312 10.4288C194.499 10.4288 195.709 10.598 196.954 10.9304C198.193 11.2627 199.227 11.7099 200.055 12.2599L198.176 16.1275C197.435 15.7106 196.807 15.3903 196.278 15.1606C195.75 14.931 195.168 14.7557 194.517 14.6409C193.823 14.5019 193.219 14.4354 192.708 14.4354C191.968 14.4354 191.415 14.5623 191.045 14.8161C190.675 15.07 190.493 15.3782 190.493 15.7468C190.493 16.2061 190.699 16.5445 191.116 16.7621C191.527 16.9796 192.385 17.2516 193.682 17.5719C193.612 17.5477 193.953 17.6444 194.687 17.8499C196.59 18.3575 197.97 18.9437 198.827 19.6084C199.685 20.2732 200.184 21.2401 200.319 22.5092C200.343 22.6482 200.354 22.8416 200.354 23.0954C200.354 23.9958 200.125 24.8056 199.667 25.5308C199.209 26.256 198.575 26.8603 197.77 27.3438C197.189 27.7124 196.478 28.0085 195.638 28.2442C194.798 28.4738 194 28.5887 193.242 28.5887C191.433 28.5887 189.806 28.2925 188.361 27.7063C186.917 27.1202 185.742 26.2983 184.826 25.2407C184.949 25.1017 185.812 24.02 187.398 21.9955Z" fill="#1D374F"></path><path d="M27.7228 22.0197C28.4276 19.693 27.0474 18.1641 25.8492 16.5747C23.4765 13.4322 21.0273 10.3562 18.7426 7.1473C17.4388 5.31016 16.0645 3.53949 14.6901 1.76278C14.4669 1.47271 14.2555 1.14033 14.3965 0.759605C14.555 0.330536 14.9662 0.245927 15.3538 0.245927C17.2978 0.23384 19.2595 0.245931 21.2094 0.221758C21.7615 0.215715 22.0786 0.560177 22.3723 0.946943C25.1679 4.66353 27.9636 8.38615 30.7534 12.1088C31.329 12.8763 31.8928 13.6558 32.4977 14.4052C32.8677 14.8645 32.8501 15.2815 32.5154 15.7166C30.9178 17.8075 29.3203 19.9106 27.7228 22.0197Z" fill="#34A8DF"></path><path d="M14.0148 22.2856C14.7196 19.9589 13.3394 18.43 12.1412 16.8406C9.76845 13.6982 7.31932 10.6161 5.03464 7.4132C3.73078 5.57606 2.35645 3.8054 0.982113 2.02869C0.75893 1.73862 0.547494 1.40624 0.688451 1.02551C0.847028 0.596446 1.25815 0.511837 1.64579 0.511837C3.58982 0.493707 5.55148 0.511845 7.50139 0.481628C8.05935 0.481628 8.37063 0.820047 8.66429 1.20681C11.4658 4.9234 14.2556 8.64602 17.0454 12.3686C17.621 13.1361 18.1848 13.9157 18.7897 14.6651C19.1597 15.1244 19.1421 15.5413 18.8073 15.9765C17.2098 18.0735 15.6123 20.1765 14.0148 22.2856Z" fill="#72C385"></path><path d="M4.19468 30.2445C3.15512 30.2445 2.1273 30.2384 1.09361 30.2445C0.400574 30.2445 0.171519 29.8517 0.506292 29.3078C0.923291 28.6309 1.26394 28.3227 1.63395 27.8272C4.1007 24.5034 6.58508 21.1917 9.07532 17.8861C9.73313 17.0038 9.75075 17.0038 10.4027 17.8377C10.9195 18.5025 11.4246 19.1733 11.9121 19.8622C13.0045 21.4032 13.0515 23.4096 11.9473 24.9687C10.8197 26.5641 9.59804 28.0931 8.43515 29.6583C8.11212 30.0874 7.71861 30.2445 7.20764 30.2384C6.20332 30.2263 5.199 30.2384 4.19468 30.2445Z" fill="#1D374F"></path><path d="M17.9321 29.9786C16.8925 29.9786 15.8647 29.9726 14.831 29.9786C14.138 29.9786 13.9089 29.5858 14.2437 29.0419C14.6607 28.3651 15.0014 28.0569 15.3714 27.5613C17.8381 24.2375 20.3225 20.9258 22.8128 17.6202C23.4706 16.7379 23.4882 16.7379 24.1401 17.5719C24.6569 18.2366 25.162 18.9074 25.6495 19.5963C26.7419 21.1374 26.7889 23.1437 25.6848 24.7029C24.5571 26.2983 23.3355 27.8272 22.1726 29.3924C21.8495 29.8215 21.456 29.9786 20.9451 29.9726C19.9407 29.9605 18.9364 29.9786 17.9321 29.9786Z" fill="#1D374F"></path></g><defs><clipPath id="clip0_1707_294"><rect width="201" height="31" fill="white"></rect></clipPath></defs></svg>